<svg version="1" xmlns="http://www.w3.org/2000/svg" width="266.667" height="266.667" viewBox="0 0 200.000000 200.000000"><path d="M33.7 78.7l.5 9.8-4.7 5.5c-2.6 3-9.6 10.7-15.6 17.2-9 9.6-10.9 12.2-10.9 14.7 0 3.7-.1 3.7 12.6 1.1 10.3-2.1 10.5-2.2 16.6-10 2.4-3 3.3-3.5 8.6-4l5.9-.5-.5 4.2c-.4 4.2-.4 4.3 2.4 4.3 1.6 0 6.2-.5 10.2-1 18.9-2.5 43.7-3.2 67-2 16.2.8 23.6.9 24.5.1.9-.7 1.6-.5 2.4.8.8 1.3 3 2 7.5 2.5 6.4.8 31.8 5.2 35.1 6.2 1.4.4 1.7-.1 1.7-2.6 0-2.7-1.8-5.3-10.2-14.8-5.7-6.3-12.5-13.9-15.3-16.8l-5-5.3.3-9.6c.1-5.2-.1-9.5-.5-9.5s-4.2.6-8.3 1.4c-4.1.8-13.3 1.9-20.5 2.6-7.1.6-13.2 1.3-13.4 1.6-.3.2.1 1 .7 1.6 1.8 1.8 1.6 10.8-.3 10.8-1.5 0-1.6-.5-2-10l-.1-2.5-14.9.3c-21.5.5-54.9-2-71.1-5.4l-3.1-.6.4 9.9zM116 78c0 .5-.8 1-1.7 1-1.5 0-1.6-.2-.3-1 1.9-1.2 2-1.2 2 0zM45 95.4c0 .2-.8 1-1.7 1.7-1.6 1.3-1.7 1.2-.4-.4 1.3-1.6 2.1-2.1 2.1-1.3zm128.1 20.3c1.3 1.6 1.2 1.7-.3.4-1.7-1.3-2.2-2.1-1.4-2.1.2 0 1 .8 1.7 1.7z"/></svg>